<svg width="21" height="21" viewBox="0 0 21 21" fill="none" xmlns="http://www.w3.org/2000/svg">
<path d="M0.5 10.5C0.5 4.99219 4.95312 0.5 10.5 0.5C16.0078 0.5 20.5 4.99219 20.5 10.5C20.5 16.0469 16.0078 20.5 10.5 20.5C4.95312 20.5 0.5 16.0469 0.5 10.5ZM14.9922 8.78125C15.4219 8.35156 15.4219 7.6875 14.9922 7.25781C14.5625 6.82812 13.8984 6.82812 13.4688 7.25781L9.25 11.4766L7.49219 9.75781C7.0625 9.32812 6.39844 9.32812 5.96875 9.75781C5.53906 10.1875 5.53906 10.8516 5.96875 11.2812L8.46875 13.7812C8.89844 14.2109 9.5625 14.2109 9.99219 13.7812L14.9922 8.78125Z" fill="#90E0EF"/>
</svg>
