<svg width="97" height="34" viewBox="0 0 97 34" fill="none" xmlns="http://www.w3.org/2000/svg">
<path d="M29.5125 16.7325C29.5125 19.1175 29.115 21.3075 28.32 23.3025C27.525 25.2975 26.4075 27.015 24.9675 28.455C23.5275 29.895 21.795 31.0125 19.77 31.8075C17.745 32.6025 15.495 33 13.02 33H0.6225V0.464998H13.02C15.495 0.464998 17.745 0.869998 19.77 1.68C21.795 2.475 23.5275 3.5925 24.9675 5.0325C26.4075 6.4575 27.525 8.1675 28.32 10.1625C29.115 12.1575 29.5125 14.3475 29.5125 16.7325ZM23.3025 16.7325C23.3025 14.9475 23.0625 13.35 22.5825 11.94C22.1175 10.515 21.435 9.315 20.535 8.34C19.65 7.35 18.57 6.5925 17.295 6.0675C16.035 5.5425 14.61 5.28 13.02 5.28H6.6975V28.185H13.02C14.61 28.185 16.035 27.9225 17.295 27.3975C18.57 26.8725 19.65 26.1225 20.535 25.1475C21.435 24.1575 22.1175 22.9575 22.5825 21.5475C23.0625 20.1225 23.3025 18.5175 23.3025 16.7325Z" fill="white"/>
<path d="M70.1359 0.464998V33H64.8034V11.985C64.8034 11.145 64.8484 10.2375 64.9384 9.2625L55.1059 27.735C54.6409 28.62 53.9284 29.0625 52.9684 29.0625H52.1134C51.1534 29.0625 50.4409 28.62 49.9759 27.735L40.0309 9.195C40.0759 9.69 40.1134 10.1775 40.1434 10.6575C40.1734 11.1375 40.1884 11.58 40.1884 11.985V33H34.8559V0.464998H39.4234C39.6934 0.464998 39.9259 0.472498 40.1209 0.487499C40.3159 0.502498 40.4884 0.539998 40.6384 0.599999C40.8034 0.659998 40.9459 0.757498 41.0659 0.892499C41.2009 1.0275 41.3284 1.2075 41.4484 1.4325L51.1909 19.5C51.4459 19.98 51.6784 20.475 51.8884 20.985C52.1134 21.495 52.3309 22.02 52.5409 22.56C52.7509 22.005 52.9684 21.4725 53.1934 20.9625C53.4184 20.4375 53.6584 19.935 53.9134 19.455L63.5209 1.4325C63.6409 1.2075 63.7684 1.0275 63.9034 0.892499C64.0384 0.757498 64.1809 0.659998 64.3309 0.599999C64.4959 0.539998 64.6759 0.502498 64.8709 0.487499C65.0659 0.472498 65.2984 0.464998 65.5684 0.464998H70.1359ZM94.72 6.3825C94.54 6.6975 94.345 6.93 94.135 7.08C93.94 7.215 93.6925 7.2825 93.3925 7.2825C93.0775 7.2825 92.7325 7.17 92.3575 6.945C91.9975 6.705 91.5625 6.4425 91.0525 6.1575C90.5425 5.8725 89.9425 5.6175 89.2525 5.3925C88.5775 5.1525 87.775 5.0325 86.845 5.0325C86.005 5.0325 85.27 5.1375 84.64 5.3475C84.01 5.5425 83.4775 5.82 83.0425 6.18C82.6225 6.54 82.3075 6.975 82.0975 7.485C81.8875 7.98 81.7825 8.5275 81.7825 9.1275C81.7825 9.8925 81.9925 10.53 82.4125 11.04C82.8475 11.55 83.4175 11.985 84.1225 12.345C84.8275 12.705 85.63 13.0275 86.53 13.3125C87.43 13.5975 88.3525 13.905 89.2975 14.235C90.2425 14.55 91.165 14.925 92.065 15.36C92.965 15.78 93.7675 16.32 94.4725 16.98C95.1775 17.625 95.74 18.42 96.16 19.365C96.595 20.31 96.8125 21.4575 96.8125 22.8075C96.8125 24.2775 96.5575 25.6575 96.0475 26.9475C95.5525 28.2225 94.8175 29.34 93.8425 30.3C92.8825 31.245 91.705 31.995 90.31 32.55C88.915 33.09 87.3175 33.36 85.5175 33.36C84.4825 33.36 83.4625 33.255 82.4575 33.045C81.4525 32.85 80.485 32.565 79.555 32.19C78.64 31.815 77.7775 31.365 76.9675 30.84C76.1575 30.315 75.4375 29.73 74.8075 29.085L76.585 26.1825C76.735 25.9725 76.93 25.8 77.17 25.665C77.41 25.515 77.665 25.44 77.935 25.44C78.31 25.44 78.715 25.5975 79.15 25.9125C79.585 26.2125 80.1025 26.55 80.7025 26.925C81.3025 27.3 82 27.645 82.795 27.96C83.605 28.26 84.5725 28.41 85.6975 28.41C87.4225 28.41 88.7575 28.005 89.7025 27.195C90.6475 26.37 91.12 25.1925 91.12 23.6625C91.12 22.8075 90.9025 22.11 90.4675 21.57C90.0475 21.03 89.485 20.58 88.78 20.22C88.075 19.845 87.2725 19.53 86.3725 19.275C85.4725 19.02 84.5575 18.7425 83.6275 18.4425C82.6975 18.1425 81.7825 17.7825 80.8825 17.3625C79.9825 16.9425 79.18 16.395 78.475 15.72C77.77 15.045 77.2 14.205 76.765 13.2C76.345 12.18 76.135 10.9275 76.135 9.4425C76.135 8.2575 76.3675 7.1025 76.8325 5.9775C77.3125 4.8525 78.0025 3.855 78.9025 2.985C79.8025 2.115 80.9125 1.4175 82.2325 0.892499C83.5525 0.367499 85.0675 0.105 86.7775 0.105C88.6975 0.105 90.4675 0.404999 92.0875 1.005C93.7075 1.605 95.0875 2.445 96.2275 3.525L94.72 6.3825Z" fill="#90E0EF"/>
</svg>
