<svg width="320" height="35" viewBox="0 0 320 35" fill="none" xmlns="http://www.w3.org/2000/svg">
<path d="M305.384 6.74874C258.693 7.72113 211.644 8.07066 164.89 8.92672C117.24 9.79851 68.8303 11.1063 24.2469 14.323C12.7809 15.1512 18.627 18.2228 30.4078 17.9254C40.2478 17.6705 48.441 16.5637 58.1291 16.3163C71.9051 15.9593 68.4049 12.2134 54.7238 12.5657C44.8838 12.8206 36.7096 13.9265 27.0078 14.1782L33.1636 17.7773C75.9591 14.6859 122.589 13.5211 168.291 12.674C215.026 11.7935 262.094 11.4684 308.784 10.496C322.662 10.2028 319.091 6.46403 305.384 6.74874Z" fill="#90E0EF"/>
<path d="M284.863 17.5917C238.139 18.5694 191.14 19.1046 144.467 20.1522C98.7046 21.1797 51.6692 22.6036 9.32628 25.9657C-3.31339 26.9574 5.63008 30.4285 18.262 29.4191C58.8822 26.1718 103.967 24.8993 147.867 23.8994C194.538 22.8376 241.539 22.3166 288.263 21.339C302.14 21.0458 298.564 17.3037 284.863 17.5917Z" fill="#90E0EF"/>
</svg>
