<svg width="47" height="46" viewBox="0 0 47 46" fill="none" xmlns="http://www.w3.org/2000/svg">
<path d="M43.9088 4.4043C46.1061 6.60156 46.1061 10.2051 43.9088 12.4023L38.9869 17.3242L28.9674 7.30469L33.8893 2.38281C36.0865 0.185547 39.6901 0.185547 41.8873 2.38281L43.9088 4.4043ZM4.53381 31.7383L26.9459 9.32617L36.9655 19.3457L14.5533 41.7578C14.026 42.2852 13.235 42.7246 12.444 42.9883L3.30334 45.625C2.60022 45.8008 1.8092 45.625 1.28186 45.0098C0.666626 44.4824 0.490845 43.6914 0.666626 42.9883L3.30334 33.8477C3.56702 33.0566 4.00647 32.2656 4.53381 31.7383ZM22.5514 9.76562L9.71936 22.5977L2.07288 14.8633C0.402954 13.2812 0.402954 10.5566 2.07288 8.97461L8.92834 2.03125C10.5104 0.449219 13.235 0.449219 14.817 2.03125L16.5748 3.78906C16.5748 3.87695 16.5748 3.87695 16.4869 3.87695L10.8619 9.50195C10.3346 10.0293 10.3346 10.9961 10.8619 11.5234C11.3893 12.0508 12.3561 12.0508 12.8834 11.5234L18.5084 5.89844C18.5084 5.81055 18.5084 5.81055 18.5963 5.81055L22.5514 9.76562ZM40.4811 27.6953C40.4811 27.6953 40.4811 27.7832 40.3932 27.7832L34.7682 33.4082C34.2408 33.9355 34.2408 34.9023 34.7682 35.4297C35.2955 35.957 36.2623 35.957 36.7897 35.4297L42.4147 29.8047C42.4147 29.7168 42.4147 29.7168 42.5026 29.7168L44.2604 31.4746C45.8424 33.0566 45.8424 35.7812 44.2604 37.3633L37.317 44.2188C35.735 45.8887 33.0104 45.8887 31.4283 44.2188L23.694 36.5723L36.526 23.7402L40.4811 27.6953Z" fill="#0077B6"/>
</svg>
