<svg width="48" height="46" viewBox="0 0 48 46" fill="none" xmlns="http://www.w3.org/2000/svg">
<path d="M24.0521 2.11914C24.0521 1.32812 24.5794 0.625 25.4583 0.625C36.2689 0.625 45.1458 9.50195 45.1458 20.3125C45.1458 21.1035 44.4427 21.7188 43.6517 21.7188H24.0521V2.11914ZM0.145844 24.5312C0.145844 13.8965 8.056 5.10742 18.2513 3.70117C19.1302 3.52539 19.8333 4.22852 19.8333 5.01953V25.9375L33.5443 39.7363C34.1595 40.3516 34.0716 41.3184 33.4564 41.7578C29.9408 44.2188 25.722 45.625 21.2396 45.625C9.55014 45.625 0.145844 36.2207 0.145844 24.5312ZM46.3763 25.9375C47.1673 25.9375 47.8705 26.6406 47.6947 27.4316C47.0794 32.3535 44.7064 36.748 41.1908 40C40.6634 40.4395 39.8724 40.4395 39.3451 39.9121L25.4583 25.9375H46.3763Z" fill="#0077B6"/>
</svg>
