<svg width="44" height="46" viewBox="0 0 44 46" fill="none" xmlns="http://www.w3.org/2000/svg">
<path d="M42.8392 15.3027C43.1908 16.0938 42.9271 16.8848 42.3119 17.5L38.5326 20.9277C38.6205 21.6309 38.7083 22.4219 38.7083 23.125C38.7083 23.916 38.6205 24.707 38.5326 25.4102L42.3119 28.8379C42.9271 29.4531 43.1908 30.2441 42.8392 31.0352C42.4876 32.0898 42.0482 33.0566 41.5208 34.0234L41.0814 34.7266C40.4662 35.6934 39.8509 36.6602 39.1478 37.5391C38.6205 38.1543 37.7415 38.3301 36.9505 38.0664L32.1165 36.5723C30.8861 37.4512 29.5677 38.1543 28.2494 38.7695L27.1068 43.7793C26.931 44.5703 26.3158 45.1855 25.5247 45.3613C24.2943 45.5371 23.0638 45.625 21.7455 45.625C20.515 45.625 19.2845 45.5371 18.054 45.3613C17.263 45.1855 16.6478 44.5703 16.472 43.7793L15.3294 38.7695C14.0111 38.1543 12.6927 37.4512 11.4622 36.5723L6.62827 38.0664C5.83725 38.3301 4.95834 38.1543 4.431 37.5391C3.72787 36.6602 3.11264 35.6934 2.49741 34.7266L2.05795 34.0234C1.53061 33.0566 1.09116 32.0898 0.739594 31.0352C0.388031 30.2441 0.651703 29.4531 1.26694 28.8379L5.04623 25.4102C4.95834 24.707 4.95834 23.916 4.95834 23.125C4.95834 22.4219 4.95834 21.6309 5.04623 20.9277L1.26694 17.5C0.651703 16.8848 0.388031 16.0938 0.739594 15.3027C1.09116 14.248 1.53061 13.2812 2.05795 12.3145L2.49741 11.6113C3.11264 10.6445 3.72787 9.67773 4.431 8.79883C4.95834 8.18359 5.83725 8.00781 6.62827 8.27148L11.4622 9.76562C12.6927 8.88672 14.0111 8.0957 15.3294 7.56836L16.472 2.55859C16.6478 1.76758 17.263 1.15234 18.054 0.976562C19.2845 0.800781 20.515 0.625 21.8333 0.625C23.0638 0.625 24.2943 0.800781 25.5247 0.976562C26.3158 1.15234 26.931 1.76758 27.1068 2.55859L28.2494 7.56836C29.5677 8.0957 30.8861 8.88672 32.1165 9.76562L36.9505 8.27148C37.7415 8.00781 38.6205 8.18359 39.1478 8.79883C39.8509 9.67773 40.4662 10.6445 41.0814 11.6113L41.5208 12.3145C42.0482 13.2812 42.4876 14.248 42.8392 15.3027ZM21.8333 30.1562C25.7005 30.1562 28.8646 27.0801 28.8646 23.125C28.8646 19.2578 25.7005 16.0938 21.8333 16.0938C17.8783 16.0938 14.8021 19.2578 14.8021 23.125C14.8021 27.0801 17.8783 30.1562 21.8333 30.1562Z" fill="#0077B6"/>
</svg>
