<svg width="57" height="46" viewBox="0 0 57 46" fill="none" xmlns="http://www.w3.org/2000/svg">
<path d="M45 40C46.4941 40 47.8125 41.3184 47.8125 42.8125C47.8125 44.3945 46.4941 45.625 44.9121 45.625H11.1621C9.66797 45.625 8.4375 44.2188 8.4375 42.8125C8.4375 41.3184 9.66797 40 11.1621 40H45ZM52.0312 0.625C54.3164 0.625 56.25 2.55859 56.25 4.84375V32.9688C56.25 35.3418 54.3164 37.1875 52.0312 37.1875H4.21875C1.8457 37.1875 0 35.3418 0 32.9688V4.84375C0 2.55859 1.8457 0.625 4.21875 0.625H52.0312ZM50.625 31.5625V6.25H5.625V31.5625H50.625Z" fill="#0077B6"/>
</svg>
